# xmcd
#
# Track frame offsets:
#	150
#	14137
#	28088
#	40599
#	55743
#	77163
#	98689
#	118744
#	135534
#	156472
#	169841
#	194671
#	213637
#	234408
#	252251
#
# Disc length: 3637 seconds
#
# Revision: 1
# Processed by: cddbd v1.5.2PL0 Copyright (c) Steve Scherf et al.
# Submitted via: EZCDAudioConverter 7.1.7.1
#
DISCID=d20e330f
DTITLE=小娟 - 微风山谷 Dts-Es5.1-CD2
DYEAR=2009
DGENRE=DTSES
TTITLE0=归来的燕子
TTITLE1=再爱我一次
TTITLE2=GONETH THE RAINBOW
TTITLE3=春夏秋冬
TTITLE4=绿岛小夜曲
TTITLE5=我俩永隔一江水
TTITLE6=爱在深秋
TTITLE7=阿弥陀佛在心间
TTITLE8=花祭
TTITLE9=BLOWING THE WIND
TTITLE10=再回首
TTITLE11=命中注定
TTITLE12=给爱
TTITLE13=惦记这一些
TTITLE14=玻璃心
EXTD=
EXTT0=
EXTT1=
EXTT2=
EXTT3=
EXTT4=
EXTT5=
EXTT6=
EXTT7=
EXTT8=
EXTT9=
EXTT10=
EXTT11=
EXTT12=
EXTT13=
EXTT14=
PLAYORDER=
